<svg xmlns="http://www.w3.org/2000/svg" viewBox="0 0 64 64">
  <defs>
    <linearGradient id="moss-tile" x1="8" y1="6" x2="56" y2="60" gradientUnits="userSpaceOnUse">
      <stop stop-color="#6EE7B7"/>
      <stop offset="0.52" stop-color="#34D399"/>
      <stop offset="1" stop-color="#14B8A6"/>
    </linearGradient>
  </defs>
  <rect width="64" height="64" rx="18" fill="url(#moss-tile)"/>
  <path d="M48.5 17.5C42.5 11 32.2 8.8 23.2 12.6C14.4 16.4 9.3 25.1 10.9 34.5C12.6 44.2 21.1 51.4 31 52C40 52.5 48 47.8 52 40.4" fill="none" stroke="#052E26" stroke-width="5.5" stroke-linecap="round"/>
  <path d="M42.5 23C38.2 18.7 30.2 17.5 24.2 20.8C18.2 24.1 16.7 31.6 20.8 36.8C25 42.1 33.2 43 39 39.4L44.2 36.2" fill="none" stroke="#052E26" stroke-width="5.5" stroke-linecap="round"/>
  <path d="M18.5 46C23.5 49 30.6 50 36.8 48.2" fill="none" stroke="#fff" stroke-opacity=".82" stroke-width="3.4" stroke-linecap="round"/>
  <circle cx="52" cy="40.4" r="3.8" fill="#fff" fill-opacity=".92"/>
</svg>
