<svg xmlns="http://www.w3.org/2000/svg" viewBox="0 0 64 64">
  <rect width="64" height="64" rx="16" fill="#059669"/>
  <path d="M17 19.5A4.5 4.5 0 0 1 21.5 15h25A2.5 2.5 0 0 1 49 17.5V22H21.5A4.5 4.5 0 0 0 17 26.5v-7Z" fill="none" stroke="#fff" stroke-width="4" stroke-linejoin="round"/>
  <path d="M17 25.5A4.5 4.5 0 0 1 21.5 21H49v28H21.5a4.5 4.5 0 0 1-4.5-4.5v-19Z" fill="none" stroke="#fff" stroke-width="4" stroke-linejoin="round"/>
  <path d="M39 31h14v10H39a5 5 0 0 1 0-10Z" fill="#059669" stroke="#fff" stroke-width="4" stroke-linejoin="round"/>
  <circle cx="41" cy="36" r="1.8" fill="#fff"/>
</svg>
